<svg xmlns="http://www.w3.org/2000/svg" width="42" height="42" fill="none">
<path fill="#000" fill-rule="evenodd" d="M21.307 6.24a40.75 40.75 0 0 1-1.51 3.731c2.333 1.329 5.073 1.481 6.905.973-2.776 1.522-4.911 1.522-12.599.434l.016-.01c-.817-.11-1.692-.226-2.635-.345-5.124-.87-11.103 3.478-7.26 8.696H17.31c3.797 0 7.309-2.053 9.222-5.393l5.878-10.26c-2.562-3.044-9.395-3.044-11.103 2.174Z" clip-rule="evenodd"/>
<path fill="#000" fill-rule="evenodd" d="M35.22 26.036a40.263 40.263 0 0 1-2.419-3.198c-2.297 1.393-3.796 3.733-4.28 5.603.094-3.209 1.162-5.092 5.93-11.326l.002.019c.5-.666 1.037-1.38 1.61-2.151 3.302-4.084 2.593-11.53-3.767-10.75l-6.543 11.538A11.042 11.042 0 0 0 25.73 26.6l5.788 10.313c3.87-.737 7.286-6.762 3.702-10.877Z" clip-rule="evenodd"/>
<path fill="#000" fill-rule="evenodd" d="M11.56 28.38a38.974 38.974 0 0 1 3.929-.534c-.037-2.722-1.277-5.215-2.626-6.575 2.683 1.687 3.75 3.57 6.67 10.891l-.018-.008c.316.775.655 1.605 1.024 2.496 1.823 4.953 8.51 8.051 11.027 2.053l-6.543-11.538c-1.898-3.349-5.4-5.418-9.198-5.435L4.16 19.676c-1.308 3.782 2.109 9.807 7.4 8.704Z" clip-rule="evenodd"/>
</svg>